<svg xmlns="http://www.w3.org/2000/svg" id="canvas" viewBox="462.803 397.118 1029.696 326.335"><path d="M 593.23,401.67 C 591.49 399.97, 589.16 400.07, 584.43 400.16 C 579.71 400.25, 576.05 400.57, 569.62 402.12 C 563.19 403.68, 559.13 405.06, 552.28 407.93 C 545.42 410.80, 541.76 412.59, 535.33 416.47 C 528.90 420.34, 525.56 422.65, 520.14 427.30 C 514.73 431.95, 512.01 434.48, 508.25 439.73 C 504.49 444.99, 503.04 447.98, 501.33 453.59 C 499.62 459.19, 498.86 462.13, 499.69 467.76 C 500.52 473.40, 501.89 476.61, 505.50 481.77 C 509.10 486.93, 511.73 488.93, 517.70 493.57 C 523.68 498.22, 527.44 500.38, 535.35 504.99 C 543.26 509.60, 548.14 511.85, 557.26 516.62 C 566.39 521.39, 571.60 523.70, 580.98 528.84 C 590.37 533.98, 595.57 536.89, 604.18 542.33 C 612.79 547.78, 617.10 550.47, 624.03 556.05 C 630.95 561.63, 634.17 564.71, 638.80 570.23 C 643.44 575.74, 645.17 578.68, 647.21 583.63 C 649.25 588.58, 649.24 590.41, 649.01 594.99 C 648.77 599.58, 648.53 602.01, 646.04 606.55 C 643.56 611.10, 641.51 613.21, 636.59 617.72 C 631.67 622.23, 628.40 624.83, 621.44 629.12 C 614.48 633.41, 610.36 635.59, 601.81 639.17 C 593.26 642.74, 588.37 644.40, 578.70 647.01 C 569.03 649.63, 563.60 650.67, 553.47 652.25 C 543.33 653.83, 537.70 654.73, 528.02 654.91 C 518.34 655.09, 513.19 654.75, 505.07 653.17 C 496.94 651.59, 493.18 649.69, 487.37 647.01 C 481.56 644.34, 479.50 642.39, 476.01 639.78 C 472.53 637.18, 472.00 634.44, 469.96 633.99 C 467.93 633.54, 465.52 635.23, 465.83 637.52 C 466.15 639.82, 467.76 642.38, 471.56 645.48 C 475.35 648.57, 478.30 650.36, 484.81 652.98 C 491.32 655.60, 495.44 657.19, 504.11 658.58 C 512.78 659.96, 518.12 660.22, 528.15 659.92 C 538.17 659.62, 543.85 658.68, 554.22 657.08 C 564.59 655.47, 570.06 654.45, 579.99 651.89 C 589.92 649.33, 594.95 647.76, 603.88 644.28 C 612.80 640.79, 617.13 638.73, 624.61 634.48 C 632.09 630.22, 635.67 627.87, 641.29 623.01 C 646.91 618.15, 649.67 615.74, 652.70 610.19 C 655.74 604.64, 656.32 601.11, 656.46 595.26 C 656.60 589.41, 656.04 586.71, 653.39 580.93 C 650.74 575.15, 648.46 572.16, 643.22 566.37 C 637.99 560.58, 634.53 557.61, 627.23 551.99 C 619.94 546.36, 615.54 543.71, 606.76 538.23 C 597.98 532.75, 592.74 529.82, 583.34 524.58 C 573.93 519.34, 568.71 516.95, 559.73 512.02 C 550.75 507.09, 545.96 504.68, 538.43 499.92 C 530.89 495.16, 527.34 492.73, 522.05 488.22 C 516.76 483.71, 514.81 481.70, 511.98 477.37 C 509.15 473.05, 508.49 470.89, 507.90 466.59 C 507.32 462.29, 507.74 460.40, 509.05 455.89 C 510.36 451.38, 511.29 448.70, 514.44 444.05 C 517.59 439.41, 519.89 436.95, 524.79 432.66 C 529.69 428.36, 532.87 426.07, 538.93 422.58 C 545.00 419.09, 548.61 417.56, 555.12 415.22 C 561.62 412.87, 565.48 411.91, 571.45 410.86 C 577.43 409.81, 580.67 410.41, 585.01 409.97 C 589.35 409.53, 591.51 410.31, 593.16 408.65 C 594.80 406.99, 594.98 403.37, 593.23 401.67" style="stroke: black; fill: black;"/><path d="M 701.88,430.91 C 700.53 432.68, 701.09 434.33, 701.63 438.82 C 702.16 443.31, 703.35 446.37, 704.55 453.34 C 705.76 460.31, 706.48 464.67, 707.64 473.69 C 708.80 482.70, 709.36 488.19, 710.36 498.40 C 711.36 508.61, 711.81 514.13, 712.64 524.73 C 713.48 535.34, 713.54 541.02, 714.52 551.42 C 715.49 561.83, 716.06 567.20, 717.50 576.76 C 718.95 586.31, 720.42 591.27, 721.73 599.19 C 723.05 607.11, 723.35 610.76, 724.09 616.34 C 724.83 621.92, 724.62 623.96, 725.43 627.08 C 726.24 630.19, 726.80 631.02, 728.15 631.91 C 729.50 632.79, 731.05 632.72, 732.19 631.50 C 733.33 630.27, 734.02 629.07, 733.85 625.78 C 733.67 622.49, 732.60 620.57, 731.31 615.03 C 730.03 609.48, 729.21 605.89, 727.44 598.07 C 725.68 590.26, 724.13 585.37, 722.50 575.95 C 720.86 566.52, 720.25 561.28, 719.25 550.97 C 718.24 540.66, 718.19 534.98, 717.46 524.38 C 716.74 513.78, 716.33 508.23, 715.62 497.96 C 714.92 487.70, 714.59 482.18, 713.94 473.06 C 713.29 463.93, 712.98 459.46, 712.38 452.34 C 711.77 445.21, 711.71 441.92, 710.91 437.44 C 710.11 432.96, 710.18 431.25, 708.38 429.94 C 706.57 428.64, 703.23 429.13, 701.88 430.91" style="stroke: black; fill: black;"/><path d="M 649.57,562.46 C 651.19 563.77, 652.15 563.54, 655.62 562.98 C 659.10 562.42, 661.19 560.79, 666.95 559.66 C 672.71 558.53, 676.64 558.04, 684.41 557.35 C 692.19 556.66, 697.00 556.41, 705.83 556.20 C 714.66 555.99, 719.50 556.13, 728.57 556.32 C 737.63 556.51, 742.83 556.70, 751.17 557.13 C 759.50 557.57, 763.91 558.05, 770.24 558.50 C 776.57 558.96, 780.20 560.41, 782.82 559.40 C 785.43 558.40, 785.72 554.89, 783.30 553.47 C 780.88 552.05, 777.07 552.79, 770.70 552.32 C 764.33 551.84, 759.85 551.43, 751.45 551.08 C 743.05 550.73, 737.82 550.78, 728.69 550.57 C 719.56 550.36, 714.73 550.17, 705.80 550.04 C 696.88 549.91, 692.07 549.87, 684.06 549.93 C 676.05 550.00, 671.99 549.95, 665.75 550.36 C 659.52 550.78, 656.53 550.78, 652.88 552.00 C 649.23 553.22, 648.17 554.36, 647.50 556.45 C 646.84 558.54, 647.95 561.15, 649.57 562.46" style="stroke: black; fill: black;"/><path d="M 879.45,538.94 C 880.20 536.63, 879.83 534.61, 878.03 532.46 C 876.23 530.31, 874.12 528.67, 870.45 528.19 C 866.78 527.70, 864.29 528.49, 859.66 530.05 C 855.03 531.62, 852.52 532.91, 847.30 535.99 C 842.07 539.07, 839.11 540.97, 833.53 545.45 C 827.96 549.93, 824.63 552.95, 819.41 558.39 C 814.19 563.82, 811.66 567.10, 807.43 572.61 C 803.20 578.13, 800.91 580.61, 798.27 585.94 C 795.62 591.28, 794.15 594.24, 794.22 599.29 C 794.28 604.34, 795.46 607.60, 798.58 611.21 C 801.70 614.82, 804.62 616.07, 809.83 617.34 C 815.05 618.62, 818.55 618.60, 824.65 617.57 C 830.75 616.54, 834.18 615.18, 840.33 612.18 C 846.49 609.18, 849.44 607.09, 855.43 602.56 C 861.42 598.03, 864.75 595.17, 870.30 589.54 C 875.84 583.92, 878.52 580.37, 883.16 574.44 C 887.81 568.51, 890.02 565.32, 893.52 559.90 C 897.02 554.47, 899.42 551.32, 900.66 547.30 C 901.90 543.29, 901.33 541.11, 899.72 539.81 C 898.10 538.50, 894.27 538.82, 892.58 540.77 C 890.89 542.71, 891.13 544.96, 891.26 549.52 C 891.39 554.09, 891.86 557.53, 893.21 563.60 C 894.55 569.66, 895.66 573.75, 897.99 579.86 C 900.32 585.98, 901.81 588.94, 904.86 594.17 C 907.90 599.39, 909.52 601.96, 913.21 605.99 C 916.90 610.02, 918.93 612.07, 923.32 614.30 C 927.70 616.54, 930.40 617.19, 935.14 617.15 C 939.89 617.11, 942.64 616.30, 947.06 614.10 C 951.48 611.91, 953.67 610.06, 957.25 606.19 C 960.82 602.32, 962.19 599.77, 964.93 594.75 C 967.66 589.73, 968.80 586.64, 970.91 581.10 C 973.03 575.56, 973.91 572.42, 975.51 567.04 C 977.12 561.66, 977.72 558.85, 978.94 554.21 C 980.15 549.58, 980.88 547.16, 981.60 543.86 C 982.32 540.57, 982.77 539.29, 982.55 537.73 C 982.33 536.18, 981.32 535.79, 980.49 536.09 C 979.66 536.40, 978.49 537.57, 978.41 539.25 C 978.34 540.94, 978.14 542.47, 980.10 544.52 C 982.07 546.56, 984.66 549.91, 988.25 549.48 C 991.83 549.04, 996.71 545.89, 998.05 542.36 C 999.38 538.82, 997.26 534.78, 994.92 531.81 C 992.58 528.84, 989.91 528.16, 986.36 527.49 C 982.80 526.83, 980.28 527.16, 977.14 528.48 C 974.01 529.80, 972.20 531.39, 970.67 534.09 C 969.14 536.80, 969.85 538.38, 969.51 542.00 C 969.16 545.63, 969.55 547.73, 968.96 552.24 C 968.37 556.74, 967.87 559.42, 966.54 564.53 C 965.21 569.64, 964.32 572.68, 962.32 577.77 C 960.31 582.86, 959.05 585.75, 956.53 589.98 C 954.01 594.22, 952.58 596.11, 949.71 598.96 C 946.84 601.82, 945.16 602.78, 942.18 604.26 C 939.20 605.74, 937.71 606.16, 934.81 606.35 C 931.92 606.54, 930.70 606.56, 927.71 605.22 C 924.71 603.89, 922.92 602.76, 919.84 599.68 C 916.76 596.60, 914.98 594.36, 912.31 589.81 C 909.64 585.27, 908.17 582.53, 906.51 576.96 C 904.86 571.38, 904.49 567.54, 904.03 561.92 C 903.57 556.30, 904.52 553.11, 904.20 548.86 C 903.87 544.60, 904.13 542.74, 902.39 540.65 C 900.65 538.56, 897.74 537.83, 895.50 538.40 C 893.25 538.98, 892.93 540.01, 891.17 543.53 C 889.42 547.04, 889.41 550.63, 886.71 555.98 C 884.01 561.32, 881.92 564.50, 877.67 570.26 C 873.42 576.02, 870.77 579.46, 865.48 584.77 C 860.19 590.08, 856.91 592.79, 851.22 596.80 C 845.53 600.82, 842.58 602.54, 837.01 604.85 C 831.44 607.17, 828.32 607.84, 823.35 608.38 C 818.39 608.91, 815.65 608.32, 812.18 607.52 C 808.71 606.72, 807.75 606.06, 806.01 604.38 C 804.28 602.71, 803.58 602.12, 803.51 599.14 C 803.44 596.15, 803.68 593.86, 805.66 589.46 C 807.65 585.06, 809.61 582.30, 813.43 577.14 C 817.25 571.97, 819.76 568.65, 824.78 563.64 C 829.79 558.62, 833.10 555.80, 838.49 552.06 C 843.87 548.32, 846.97 546.73, 851.68 544.94 C 856.40 543.14, 858.91 542.95, 862.07 543.07 C 865.24 543.18, 865.81 545.09, 867.50 545.52 C 869.20 545.95, 869.19 545.53, 870.54 545.22 C 871.89 544.92, 872.47 545.26, 874.25 544.00 C 876.03 542.74, 878.69 541.25, 879.45 538.94" style="stroke: black; fill: black;"/><path d="M 1063.60,569.88 C 1064.42 567.62, 1064.15 566.46, 1063.35 564.39 C 1062.55 562.32, 1061.96 561.30, 1059.60 559.52 C 1057.25 557.75, 1055.27 556.27, 1051.57 555.52 C 1047.86 554.76, 1045.21 554.90, 1041.09 555.75 C 1036.96 556.60, 1034.40 557.22, 1030.94 559.77 C 1027.48 562.32, 1025.92 564.63, 1023.78 568.49 C 1021.63 572.36, 1020.93 574.77, 1020.21 579.11 C 1019.49 583.44, 1019.46 586.02, 1020.17 590.16 C 1020.88 594.31, 1021.69 596.40, 1023.77 599.83 C 1025.85 603.25, 1027.18 604.96, 1030.56 607.29 C 1033.93 609.62, 1036.37 610.87, 1040.64 611.47 C 1044.91 612.08, 1047.64 611.56, 1051.93 610.31 C 1056.21 609.05, 1058.07 607.72, 1062.07 605.20 C 1066.07 602.67, 1068.14 601.02, 1071.92 597.69 C 1075.70 594.35, 1077.63 592.13, 1080.96 588.54 C 1084.30 584.95, 1086.07 582.95, 1088.58 579.73 C 1091.09 576.50, 1093.16 574.69, 1093.51 572.39 C 1093.86 570.10, 1091.91 568.60, 1090.34 568.26 C 1088.78 567.91, 1086.36 568.69, 1085.68 570.66 C 1085.01 572.64, 1085.90 574.29, 1086.98 578.12 C 1088.05 581.95, 1089.09 584.81, 1091.06 589.80 C 1093.03 594.79, 1094.24 598.27, 1096.83 603.05 C 1099.42 607.84, 1101.08 610.28, 1104.01 613.74 C 1106.93 617.20, 1108.87 619.90, 1111.44 620.35 C 1114.00 620.79, 1116.66 618.47, 1116.84 615.97 C 1117.02 613.47, 1114.38 611.38, 1112.32 607.83 C 1110.27 604.29, 1108.48 602.58, 1106.55 598.25 C 1104.63 593.91, 1103.78 590.87, 1102.71 586.15 C 1101.64 581.42, 1102.05 578.64, 1101.19 574.62 C 1100.34 570.60, 1100.67 568.39, 1098.44 566.06 C 1096.22 563.72, 1093.36 563.21, 1090.06 562.96 C 1086.75 562.71, 1084.35 562.88, 1081.94 564.79 C 1079.53 566.70, 1079.93 569.26, 1078.02 572.50 C 1076.10 575.74, 1075.09 577.70, 1072.38 580.99 C 1069.66 584.28, 1067.73 586.23, 1064.44 588.94 C 1061.15 591.65, 1059.08 592.94, 1055.92 594.55 C 1052.77 596.15, 1051.20 596.54, 1048.66 596.96 C 1046.12 597.37, 1045.06 597.08, 1043.23 596.62 C 1041.39 596.16, 1040.74 595.60, 1039.47 594.66 C 1038.21 593.72, 1037.74 593.29, 1036.91 591.90 C 1036.08 590.50, 1035.62 589.71, 1035.31 587.67 C 1035.01 585.64, 1034.98 584.06, 1035.40 581.72 C 1035.83 579.38, 1036.54 577.71, 1037.45 575.98 C 1038.37 574.25, 1038.92 573.61, 1039.99 573.08 C 1041.06 572.55, 1041.55 572.99, 1042.80 573.32 C 1044.06 573.64, 1044.87 574.04, 1046.26 574.70 C 1047.66 575.35, 1048.15 576.08, 1049.77 576.59 C 1051.39 577.11, 1052.45 577.46, 1054.35 577.27 C 1056.25 577.08, 1057.40 577.14, 1059.25 575.66 C 1061.10 574.18, 1062.78 572.13, 1063.60 569.88" style="stroke: black; fill: black;"/><path d="M 1181.28,575.47 C 1179.80 577.12, 1180.02 578.77, 1180.46 582.73 C 1180.89 586.68, 1182.36 589.00, 1183.46 595.25 C 1184.55 601.50, 1184.97 605.57, 1185.93 613.96 C 1186.88 622.35, 1187.65 627.61, 1188.21 637.21 C 1188.78 646.80, 1188.60 652.38, 1188.77 661.92 C 1188.93 671.45, 1189.12 676.40, 1189.05 684.88 C 1188.97 693.35, 1188.75 697.99, 1188.38 704.31 C 1188.01 710.63, 1186.32 713.59, 1187.19 716.49 C 1188.07 719.38, 1191.23 719.61, 1192.77 718.79 C 1194.30 717.96, 1195.27 716.50, 1194.89 712.37 C 1194.50 708.23, 1192.68 705.00, 1190.83 698.09 C 1188.97 691.18, 1187.61 686.37, 1185.60 677.80 C 1183.59 669.24, 1182.35 664.42, 1180.78 655.26 C 1179.21 646.10, 1178.49 641.14, 1177.75 631.98 C 1177.00 622.83, 1176.65 618.18, 1177.05 609.49 C 1177.46 600.79, 1178.06 596.40, 1179.77 588.52 C 1181.48 580.64, 1182.65 576.65, 1185.61 570.07 C 1188.57 563.49, 1190.50 560.51, 1194.57 555.64 C 1198.64 550.78, 1201.08 548.76, 1205.96 545.74 C 1210.83 542.72, 1213.69 541.71, 1218.96 540.56 C 1224.23 539.41, 1227.13 539.37, 1232.32 539.99 C 1237.51 540.61, 1240.43 541.46, 1244.91 543.67 C 1249.39 545.88, 1251.59 547.56, 1254.72 551.03 C 1257.86 554.51, 1258.97 556.66, 1260.59 561.06 C 1262.21 565.46, 1262.88 568.07, 1262.84 573.04 C 1262.79 578.01, 1262.45 580.78, 1260.36 585.92 C 1258.26 591.06, 1256.54 593.86, 1252.37 598.76 C 1248.20 603.66, 1245.32 606.36, 1239.52 610.41 C 1233.73 614.46, 1229.67 616.36, 1223.41 619.01 C 1217.16 621.66, 1213.23 622.54, 1208.24 623.66 C 1203.24 624.78, 1201.08 624.25, 1198.43 624.63 C 1195.77 625.00, 1195.59 625.13, 1194.97 625.51 C 1194.34 625.90, 1195.26 626.52, 1195.28 626.54 C 1195.30 626.57, 1196.33 625.91, 1195.07 625.63 C 1193.81 625.35, 1190.31 624.43, 1188.97 625.15 C 1187.63 625.87, 1187.69 627.49, 1188.37 629.22 C 1189.05 630.95, 1190.11 632.51, 1192.39 633.80 C 1194.66 635.08, 1196.07 636.04, 1199.73 635.66 C 1203.40 635.28, 1205.36 633.88, 1210.71 631.91 C 1216.05 629.94, 1219.89 628.94, 1226.47 625.80 C 1233.05 622.66, 1237.32 620.66, 1243.61 616.21 C 1249.89 611.77, 1253.11 609.00, 1257.91 603.56 C 1262.70 598.11, 1264.95 595.06, 1267.60 588.99 C 1270.26 582.92, 1270.98 579.40, 1271.18 573.23 C 1271.39 567.06, 1270.66 563.71, 1268.63 558.12 C 1266.60 552.53, 1265.07 549.68, 1261.06 545.28 C 1257.04 540.89, 1254.13 538.79, 1248.56 536.14 C 1242.98 533.48, 1239.45 532.59, 1233.18 531.99 C 1226.91 531.39, 1223.43 531.57, 1217.21 533.12 C 1211.00 534.67, 1207.65 536.05, 1202.10 539.72 C 1196.54 543.40, 1193.86 545.90, 1189.44 551.48 C 1185.03 557.06, 1183.07 560.46, 1180.03 567.63 C 1176.99 574.81, 1175.90 579.04, 1174.23 587.36 C 1172.55 595.69, 1172.03 600.25, 1171.67 609.25 C 1171.31 618.26, 1171.72 623.02, 1172.42 632.40 C 1173.12 641.78, 1173.85 646.79, 1175.17 656.13 C 1176.48 665.48, 1177.57 670.35, 1178.99 679.11 C 1180.41 687.87, 1181.09 692.78, 1182.25 699.93 C 1183.40 707.08, 1183.11 710.78, 1184.75 714.87 C 1186.40 718.96, 1188.11 719.99, 1190.48 720.37 C 1192.84 720.74, 1195.53 719.94, 1196.57 716.73 C 1197.60 713.52, 1195.99 710.71, 1195.65 704.33 C 1195.31 697.94, 1195.15 693.31, 1194.87 684.81 C 1194.58 676.30, 1194.40 671.39, 1194.23 661.82 C 1194.06 652.25, 1194.30 646.63, 1194.01 636.95 C 1193.72 627.27, 1193.17 621.96, 1192.77 613.41 C 1192.38 604.87, 1192.43 600.71, 1192.03 594.24 C 1191.62 587.77, 1191.58 585.02, 1190.75 581.07 C 1189.91 577.12, 1189.75 575.61, 1187.86 574.49 C 1185.96 573.37, 1182.76 573.83, 1181.28 575.47" style="stroke: black; fill: black;"/><path d="M 1301.18,479.62 C 1299.65 481.30, 1300.22 483.14, 1300.39 487.24 C 1300.57 491.33, 1301.43 493.78, 1302.06 500.10 C 1302.69 506.41, 1302.69 510.96, 1303.55 518.81 C 1304.41 526.66, 1305.30 530.95, 1306.35 539.34 C 1307.40 547.74, 1307.83 552.41, 1308.80 560.77 C 1309.76 569.14, 1309.87 573.47, 1311.17 581.16 C 1312.47 588.86, 1313.48 593.06, 1315.30 599.24 C 1317.13 605.43, 1318.40 607.97, 1320.31 612.10 C 1322.21 616.22, 1322.75 618.01, 1324.82 619.86 C 1326.89 621.71, 1328.92 621.72, 1330.64 621.34 C 1332.35 620.96, 1333.03 619.43, 1333.39 617.95 C 1333.75 616.47, 1333.40 615.97, 1332.44 613.93 C 1331.48 611.89, 1330.64 611.18, 1328.61 607.76 C 1326.58 604.34, 1324.51 602.38, 1322.28 596.83 C 1320.05 591.28, 1318.96 587.34, 1317.46 579.99 C 1315.97 572.64, 1315.76 568.35, 1314.80 560.08 C 1313.84 551.81, 1313.46 547.02, 1312.67 538.65 C 1311.89 530.28, 1311.23 526.05, 1310.88 518.24 C 1310.53 510.43, 1310.98 505.99, 1310.91 499.61 C 1310.85 493.22, 1311.13 490.47, 1310.55 486.31 C 1309.98 482.16, 1309.91 480.17, 1308.04 478.83 C 1306.16 477.49, 1302.71 477.94, 1301.18 479.62" style="stroke: black; fill: black;"/><path d="M 1367.06,589.55 C 1368.50 591.55, 1370.30 592.77, 1373.27 592.73 C 1376.24 592.68, 1377.91 591.08, 1381.92 589.32 C 1385.93 587.55, 1388.64 586.23, 1393.32 583.91 C 1398.00 581.59, 1400.79 580.16, 1405.34 577.73 C 1409.90 575.30, 1411.87 574.11, 1416.08 571.76 C 1420.29 569.41, 1422.70 568.34, 1426.39 565.99 C 1430.08 563.63, 1432.37 562.91, 1434.52 560.00 C 1436.67 557.09, 1436.96 555.05, 1437.14 551.42 C 1437.31 547.78, 1437.46 545.04, 1435.41 541.81 C 1433.35 538.59, 1430.96 536.62, 1426.87 535.29 C 1422.78 533.95, 1419.99 534.63, 1414.94 535.15 C 1409.90 535.67, 1407.23 536.35, 1401.66 537.90 C 1396.08 539.45, 1392.74 540.40, 1387.05 542.90 C 1381.36 545.41, 1378.33 546.93, 1373.21 550.42 C 1368.08 553.91, 1365.32 555.95, 1361.40 560.36 C 1357.49 564.76, 1355.38 567.16, 1353.62 572.44 C 1351.87 577.72, 1351.65 581.10, 1352.63 586.76 C 1353.60 592.42, 1355.06 595.57, 1358.51 600.75 C 1361.95 605.93, 1364.26 608.35, 1369.86 612.65 C 1375.46 616.94, 1379.08 619.02, 1386.50 622.21 C 1393.93 625.41, 1398.39 626.56, 1406.98 628.63 C 1415.58 630.70, 1420.08 631.33, 1429.47 632.58 C 1438.87 633.82, 1445.00 634.33, 1453.95 634.86 C 1462.90 635.40, 1467.50 635.29, 1474.23 635.28 C 1480.97 635.26, 1484.98 636.05, 1487.61 634.77 C 1490.24 633.49, 1490.08 629.96, 1487.40 628.86 C 1484.72 627.77, 1480.84 629.28, 1474.22 629.30 C 1467.60 629.32, 1463.08 629.41, 1454.28 628.95 C 1445.48 628.48, 1439.39 628.19, 1430.22 626.98 C 1421.05 625.77, 1416.63 625.05, 1408.43 622.88 C 1400.23 620.72, 1396.01 619.38, 1389.23 616.16 C 1382.46 612.95, 1379.28 610.78, 1374.54 606.80 C 1369.81 602.81, 1368.18 600.54, 1365.55 596.23 C 1362.91 591.93, 1362.06 589.47, 1361.36 585.28 C 1360.66 581.08, 1360.74 579.10, 1362.05 575.28 C 1363.36 571.46, 1364.71 569.72, 1367.91 566.20 C 1371.11 562.68, 1373.54 560.64, 1378.06 557.67 C 1382.58 554.69, 1385.35 553.26, 1390.50 551.31 C 1395.66 549.37, 1398.92 548.67, 1403.84 547.92 C 1408.76 547.18, 1411.37 547.21, 1415.11 547.61 C 1418.85 548.02, 1420.39 549.45, 1422.55 549.96 C 1424.70 550.47, 1425.20 550.26, 1425.89 550.16 C 1426.59 550.07, 1426.50 549.32, 1426.02 549.49 C 1425.54 549.66, 1424.83 549.62, 1423.47 551.01 C 1422.12 552.40, 1421.80 554.12, 1419.24 556.46 C 1416.68 558.79, 1414.41 560.32, 1410.68 562.70 C 1406.96 565.07, 1405.01 566.27, 1400.62 568.34 C 1396.23 570.41, 1393.39 571.41, 1388.74 573.03 C 1384.08 574.64, 1381.17 575.40, 1377.35 576.42 C 1373.52 577.44, 1371.87 576.85, 1369.61 578.11 C 1367.34 579.38, 1366.55 580.46, 1366.04 582.75 C 1365.53 585.04, 1365.61 587.56, 1367.06 589.55" style="stroke: black; fill: black;"/></svg>